<?xml version="1.0" encoding="UTF-8" standalone="no"?>
<svg
   enable-background="new 0 0 24 24"
   height="36"
   viewBox="0 0 100 36"
   width="100"
   version="1.1"
   id="svg6"
   sodipodi:docname="app_login_logo.svg"
   style="fill:#000000"
   inkscape:version="1.1.2 (0a00cf5339, 2022-02-04)"
   inkscape:export-filename="/var/www/html/BesteApt/css/beste.png"
   inkscape:export-xdpi="18"
   inkscape:export-ydpi="18"
   xmlns:inkscape="http://www.inkscape.org/namespaces/inkscape"
   xmlns:sodipodi="http://sodipodi.sourceforge.net/DTD/sodipodi-0.dtd"
   xmlns="http://www.w3.org/2000/svg"
   xmlns:svg="http://www.w3.org/2000/svg"
   xmlns:rdf="http://www.w3.org/1999/02/22-rdf-syntax-ns#"
   xmlns:cc="http://creativecommons.org/ns#"
   xmlns:dc="http://purl.org/dc/elements/1.1/">
  <metadata
     id="metadata12">
    <rdf:RDF>
      <cc:Work
         rdf:about="">
        <dc:format>image/svg+xml</dc:format>
        <dc:type
           rdf:resource="http://purl.org/dc/dcmitype/StillImage" />
      </cc:Work>
    </rdf:RDF>
  </metadata>
  <defs
     id="defs10" />
  <sodipodi:namedview
     pagecolor="#ffffff"
     bordercolor="#666666"
     borderopacity="1"
     objecttolerance="10"
     gridtolerance="10"
     guidetolerance="10"
     inkscape:pageopacity="0"
     inkscape:pageshadow="2"
     inkscape:window-width="1920"
     inkscape:window-height="1022"
     id="namedview8"
     showgrid="false"
     inkscape:zoom="8.1640387"
     inkscape:cx="60.019314"
     inkscape:cy="15.433538"
     inkscape:window-x="0"
     inkscape:window-y="0"
     inkscape:window-maximized="1"
     inkscape:current-layer="svg6"
     inkscape:pagecheckerboard="0" />
  <path
     id="rect26766"
     style="fill:#ff5722;fill-opacity:1;stroke-width:1.61431;stroke-linecap:round;stroke-linejoin:round;paint-order:markers stroke fill"
     d="M 1.3947235,7.0376065 V 28.962393 H 23.319513 V 7.0376065 Z m 9.4356315,4.9747455 c 1.00067,0 1.906362,0.112765 2.715892,0.337632 0.820776,0.224874 1.523492,0.578845 2.108153,1.062311 0.584664,0.483471 1.034072,1.102028 1.34889,1.855343 0.314819,0.75331 0.472685,1.658181 0.472685,2.71507 0,1.011913 -0.157866,1.895053 -0.472685,2.648363 -0.314818,0.753314 -0.764226,1.377099 -1.34889,1.871811 -0.573416,0.494712 -1.276134,0.86601 -2.108153,1.113368 -0.832017,0.247356 -1.765488,0.370573 -2.799889,0.370573 -0.472226,0 -1.0231264,-0.02255 -1.6527594,-0.06753 -0.629635,-0.03374 -1.248191,-0.111848 -1.855339,-0.235526 V 12.299754 c 0.607148,-0.112437 1.236981,-0.186143 1.889102,-0.219875 0.663366,-0.04498 1.2307674,-0.06753 1.7029934,-0.06753 z m 0.135055,2.243206 c -0.179896,0 -0.365548,0.0062 -0.556686,0.01729 -0.191139,0 -0.370738,0.01128 -0.5393914,0.03377 v 7.386771 c 0.123679,0.01124 0.2642214,0.02249 0.4216304,0.03378 h 0.590448 c 1.31549,0 2.288016,-0.331421 2.917652,-0.994784 0.640877,-0.663365 0.96102,-1.580337 0.96102,-2.749658 0,-1.225541 -0.303638,-2.152962 -0.910786,-2.782598 -0.60715,-0.629648 -1.568403,-0.944564 -2.883887,-0.944566 z" />
  <g
     aria-label="Documentor"
     id="text46215"
     style="font-size:16px;line-height:1.25;letter-spacing:0px;word-spacing:0px">
    <path
       d="m 33.025083,17.952 q 0,1.552 -0.336,2.64 -0.32,1.072 -0.944,1.744 -0.608,0.672 -1.488,0.976 -0.864,0.304 -1.936,0.304 -1.088,0 -2.304,-0.288 V 12.576 q 0.608,-0.128 1.184,-0.208 0.576,-0.08 1.104,-0.08 1.088,0 1.952,0.304 0.88,0.304 1.488,0.976 0.624,0.672 0.944,1.76 0.336,1.072 0.336,2.624 z m -1.536,0 q 0,-1.184 -0.176,-2.016 -0.176,-0.832 -0.544,-1.36 -0.368,-0.528 -0.976,-0.768 -0.592,-0.24 -1.424,-0.24 -0.224,0 -0.448,0.016 -0.224,0.016 -0.464,0.048 v 8.64 q 0.24,0.032 0.464,0.048 0.224,0.016 0.432,0.016 0.848,0 1.44,-0.24 0.592,-0.24 0.96,-0.752 0.384,-0.528 0.56,-1.36 0.176,-0.832 0.176,-2.032 z"
       style="font-family:'Ubuntu Condensed';-inkscape-font-specification:'Ubuntu Condensed, '"
       id="path93748" />
    <path
       d="m 40.545056,19.312 q 0,0.992 -0.176,1.808 -0.176,0.8 -0.544,1.376 -0.352,0.576 -0.912,0.896 -0.544,0.32 -1.296,0.32 -0.752,0 -1.312,-0.32 -0.56,-0.32 -0.928,-0.896 -0.352,-0.576 -0.528,-1.376 -0.176,-0.816 -0.176,-1.808 0,-0.976 0.176,-1.792 0.176,-0.816 0.528,-1.392 0.368,-0.592 0.928,-0.912 0.56,-0.32 1.312,-0.32 0.752,0 1.296,0.32 0.56,0.32 0.912,0.912 0.368,0.576 0.544,1.392 0.176,0.816 0.176,1.792 z m -1.44,0 q 0,-0.704 -0.08,-1.28 -0.08,-0.592 -0.256,-1.008 -0.176,-0.432 -0.464,-0.656 -0.288,-0.24 -0.688,-0.24 -0.416,0 -0.704,0.24 -0.272,0.224 -0.464,0.656 -0.176,0.416 -0.256,1.008 -0.08,0.576 -0.08,1.28 0,0.704 0.08,1.296 0.08,0.576 0.256,0.992 0.192,0.416 0.464,0.656 0.288,0.224 0.704,0.224 0.4,0 0.688,-0.224 0.288,-0.24 0.464,-0.656 0.176,-0.416 0.256,-0.992 0.08,-0.592 0.08,-1.296 z"
       style="font-family:'Ubuntu Condensed';-inkscape-font-specification:'Ubuntu Condensed, '"
       id="path93750" />
    <path
       d="m 45.121046,23.712 q -0.864,0 -1.44,-0.336 -0.576,-0.336 -0.944,-0.912 -0.352,-0.592 -0.512,-1.392 -0.144,-0.8 -0.144,-1.744 0,-2.08 0.752,-3.248 0.768,-1.184 2.304,-1.184 0.464,0 0.832,0.112 0.368,0.112 0.688,0.288 l -0.352,1.136 q -0.496,-0.32 -1.104,-0.32 -0.864,0 -1.28,0.784 -0.4,0.784 -0.4,2.432 0,0.688 0.08,1.28 0.08,0.576 0.272,0.992 0.208,0.416 0.528,0.656 0.336,0.24 0.848,0.24 0.352,0 0.624,-0.08 0.288,-0.096 0.544,-0.24 l 0.304,1.072 q -0.256,0.176 -0.688,0.32 -0.416,0.144 -0.912,0.144 z"
       style="font-family:'Ubuntu Condensed';-inkscape-font-specification:'Ubuntu Condensed, '"
       id="path93752" />
    <path
       d="m 53.409025,23.264 q -0.208,0.08 -0.512,0.16 -0.288,0.064 -0.624,0.112 -0.32,0.064 -0.656,0.096 -0.32,0.048 -0.592,0.048 -0.656,0 -1.2,-0.16 -0.544,-0.144 -0.928,-0.528 -0.384,-0.384 -0.592,-1.04 -0.208,-0.672 -0.208,-1.68 v -5.168 h 1.376 v 5.12 q 0,1.232 0.368,1.744 0.384,0.496 1.152,0.496 0.256,0 0.512,-0.016 0.256,-0.032 0.528,-0.112 v -7.232 h 1.376 z"
       style="font-family:'Ubuntu Condensed';-inkscape-font-specification:'Ubuntu Condensed, '"
       id="path93754" />
    <path
       d="m 55.889018,15.344 q 0.56,-0.176 1.216,-0.288 0.656,-0.128 1.2,-0.128 0.56,0 1.008,0.144 0.464,0.144 0.816,0.48 0.416,-0.272 0.896,-0.448 0.48,-0.176 1.056,-0.176 0.576,0 1.04,0.176 0.48,0.16 0.816,0.56 0.336,0.4 0.528,1.088 0.192,0.672 0.192,1.68 v 5.072 h -1.376 v -4.96 q 0,-1.248 -0.288,-1.824 -0.288,-0.576 -1.088,-0.576 -0.304,0 -0.624,0.112 -0.304,0.112 -0.576,0.304 0.128,0.368 0.192,0.832 0.064,0.464 0.064,1.04 v 5.072 h -1.376 v -4.96 q 0,-1.248 -0.288,-1.824 -0.288,-0.576 -1.088,-0.576 -0.416,0 -0.944,0.16 v 7.2 h -1.376 z"
       style="font-family:'Ubuntu Condensed';-inkscape-font-specification:'Ubuntu Condensed, '"
       id="path93756" />
    <path
       d="m 68.001017,19.712 q 0.016,0.608 0.112,1.12 0.096,0.496 0.304,0.88 0.224,0.368 0.576,0.576 0.368,0.208 0.928,0.208 0.464,0 0.848,-0.128 0.4,-0.144 0.576,-0.24 l 0.256,1.104 q -0.208,0.144 -0.704,0.304 -0.48,0.176 -1.152,0.176 -0.88,0 -1.488,-0.32 -0.592,-0.32 -0.976,-0.896 -0.368,-0.576 -0.528,-1.376 -0.16,-0.8 -0.16,-1.76 0,-2.32 0.768,-3.392 0.768,-1.072 2.032,-1.072 1.424,0 2.016,1.072 0.592,1.072 0.592,3.008 0,0.176 0,0.368 0,0.176 -0.016,0.368 z m 1.392,-3.648 q -0.688,0 -1.008,0.688 -0.304,0.688 -0.368,1.84 h 2.544 q 0,-1.168 -0.24,-1.84 -0.24,-0.688 -0.928,-0.688 z"
       style="font-family:'Ubuntu Condensed';-inkscape-font-specification:'Ubuntu Condensed, '"
       id="path93758" />
    <path
       d="m 74.033,15.344 q 0.592,-0.176 1.28,-0.288 0.688,-0.128 1.264,-0.128 0.624,0 1.136,0.176 0.512,0.16 0.864,0.56 0.368,0.4 0.56,1.088 0.208,0.672 0.208,1.68 v 5.072 h -1.376 v -4.96 q 0,-1.248 -0.32,-1.824 -0.32,-0.576 -1.2,-0.576 -0.464,0 -1.04,0.16 v 7.2 h -1.376 z"
       style="font-family:'Ubuntu Condensed';-inkscape-font-specification:'Ubuntu Condensed, '"
       id="path93760" />
    <path
       d="m 83.024975,15.104 h 2.112 v 1.184 h -2.112 v 4.624 q 0,0.864 0.304,1.216 0.32,0.336 0.848,0.336 0.272,0 0.512,-0.08 0.256,-0.08 0.432,-0.192 l 0.272,1.104 q -0.656,0.384 -1.392,0.384 -1.184,0 -1.776,-0.656 -0.576,-0.672 -0.576,-2.208 v -7.968 l 1.376,-0.24 z"
       style="font-family:'Ubuntu Condensed';-inkscape-font-specification:'Ubuntu Condensed, '"
       id="path93762" />
    <path
       d="m 92.192944,19.312 q 0,0.992 -0.176,1.808 -0.176,0.8 -0.544,1.376 -0.352,0.576 -0.912,0.896 -0.544,0.32 -1.296,0.32 -0.752,0 -1.312,-0.32 -0.56,-0.32 -0.928,-0.896 -0.352,-0.576 -0.528,-1.376 -0.176,-0.816 -0.176,-1.808 0,-0.976 0.176,-1.792 0.176,-0.816 0.528,-1.392 0.368,-0.592 0.928,-0.912 0.56,-0.32 1.312,-0.32 0.752,0 1.296,0.32 0.56,0.32 0.912,0.912 0.368,0.576 0.544,1.392 0.176,0.816 0.176,1.792 z m -1.44,0 q 0,-0.704 -0.08,-1.28 -0.08,-0.592 -0.256,-1.008 -0.176,-0.432 -0.464,-0.656 -0.288,-0.24 -0.688,-0.24 -0.416,0 -0.704,0.24 -0.272,0.224 -0.464,0.656 -0.176,0.416 -0.256,1.008 -0.08,0.576 -0.08,1.28 0,0.704 0.08,1.296 0.08,0.576 0.256,0.992 0.192,0.416 0.464,0.656 0.288,0.224 0.704,0.224 0.4,0 0.688,-0.224 0.288,-0.24 0.464,-0.656 0.176,-0.416 0.256,-0.992 0.08,-0.592 0.08,-1.296 z"
       style="font-family:'Ubuntu Condensed';-inkscape-font-specification:'Ubuntu Condensed, '"
       id="path93764" />
    <path
       d="m 97.840934,16.352 q -0.512,-0.224 -1.152,-0.224 -0.592,0 -1.104,0.208 v 7.168 h -1.376 v -8.032 q 0.464,-0.224 1.056,-0.368 0.608,-0.16 1.328,-0.16 0.384,0 0.768,0.048 0.384,0.048 0.72,0.176 z"
       style="font-family:'Ubuntu Condensed';-inkscape-font-specification:'Ubuntu Condensed, '"
       id="path93766" />
  </g>
</svg>
