<?xml version="1.0" encoding="UTF-8" standalone="no"?>
<svg
   enable-background="new 0 0 24 24"
   height="24"
   viewBox="0 0 126 24"
   width="126"
   version="1.1"
   id="svg6"
   sodipodi:docname="app_header_logo.svg"
   style="fill:#000000"
   inkscape:version="1.1.2 (0a00cf5339, 2022-02-04)"
   inkscape:export-filename="/var/www/html/BesteApt/css/beste.png"
   inkscape:export-xdpi="18"
   inkscape:export-ydpi="18"
   xmlns:inkscape="http://www.inkscape.org/namespaces/inkscape"
   xmlns:sodipodi="http://sodipodi.sourceforge.net/DTD/sodipodi-0.dtd"
   xmlns="http://www.w3.org/2000/svg"
   xmlns:svg="http://www.w3.org/2000/svg"
   xmlns:rdf="http://www.w3.org/1999/02/22-rdf-syntax-ns#"
   xmlns:cc="http://creativecommons.org/ns#"
   xmlns:dc="http://purl.org/dc/elements/1.1/">
  <metadata
     id="metadata12">
    <rdf:RDF>
      <cc:Work
         rdf:about="">
        <dc:format>image/svg+xml</dc:format>
        <dc:type
           rdf:resource="http://purl.org/dc/dcmitype/StillImage" />
      </cc:Work>
    </rdf:RDF>
  </metadata>
  <defs
     id="defs10" />
  <sodipodi:namedview
     pagecolor="#ffffff"
     bordercolor="#666666"
     borderopacity="1"
     objecttolerance="10"
     gridtolerance="10"
     guidetolerance="10"
     inkscape:pageopacity="0"
     inkscape:pageshadow="2"
     inkscape:window-width="1920"
     inkscape:window-height="1022"
     id="namedview8"
     showgrid="false"
     inkscape:zoom="4.6838256"
     inkscape:cx="58.072188"
     inkscape:cy="3.416011"
     inkscape:window-x="0"
     inkscape:window-y="0"
     inkscape:window-maximized="1"
     inkscape:current-layer="text1511"
     inkscape:pagecheckerboard="0"
     width="101px" />
  <rect
     height="24"
     width="24"
     id="rect2"
     x="0"
     y="0"
     style="fill:none" />
  <g
     aria-label="Beste"
     style="font-style:normal;font-weight:normal;font-size:40px;line-height:1.25;font-family:sans-serif;letter-spacing:0px;word-spacing:0px;fill:#00112b;fill-opacity:1;stroke:none"
     id="text824"
     transform="translate(-2,0.400437)">
    <g
       aria-label="yönetici"
       style="font-style:normal;font-weight:normal;font-size:22.6667px;line-height:1.25;font-family:sans-serif;fill:#00112b;fill-opacity:1;stroke:none"
       id="text1511">
      <text
         xml:space="preserve"
         style="font-style:normal;font-weight:normal;font-size:21.3333px;line-height:1.25;font-family:sans-serif;letter-spacing:0px;word-spacing:0px;fill:#000000;fill-opacity:1;stroke:none"
         x="28.05537"
         y="18.938217"
         id="text46215"><tspan
           sodipodi:role="line"
           id="tspan46213"
           x="28.05537"
           y="18.938217"
           style="font-style:normal;font-variant:normal;font-weight:normal;font-stretch:normal;font-size:21.3333px;font-family:'Ubuntu Condensed';-inkscape-font-specification:'Ubuntu Condensed, '">Documentor</tspan></text>
      <rect
         style="fill:#ffffff;stroke-width:1.48531;stroke-linecap:round;stroke-linejoin:round;paint-order:markers stroke fill"
         id="rect62313"
         width="14.73749"
         height="15.545709"
         x="7.5704541"
         y="3.831989" />
    </g>
  </g>
  <path
     id="rect26766"
     style="fill:#ff5722;fill-opacity:1;stroke-width:1.61431;stroke-linecap:round;stroke-linejoin:round;paint-order:markers stroke fill"
     d="M 1.6387803,1.0376056 V 22.962394 H 23.56357 V 1.0376056 Z m 9.4356317,4.9747461 c 1.00067,0 1.906362,0.1127655 2.715892,0.3376321 0.820776,0.2248738 1.523492,0.5788452 2.108153,1.0623117 0.584664,0.4834708 1.034072,1.1020276 1.34889,1.8553427 0.314819,0.7533098 0.472685,1.6581808 0.472685,2.7150698 0,1.011914 -0.157866,1.895054 -0.472685,2.648364 -0.314818,0.753314 -0.764226,1.377099 -1.34889,1.871811 -0.573416,0.494712 -1.276134,0.86601 -2.108153,1.113368 -0.832017,0.247356 -1.765488,0.370573 -2.799889,0.370573 -0.472226,0 -1.0231262,-0.02255 -1.6527592,-0.06753 -0.629635,-0.03374 -1.2481913,-0.111848 -1.8553393,-0.235526 V 6.2997528 c 0.607148,-0.1124354 1.236981,-0.1861424 1.8891023,-0.219875 0.6633662,-0.044975 1.2307672,-0.067525 1.7029932,-0.067526 z m 0.135055,2.2432061 c -0.179896,0 -0.365548,0.0062 -0.556686,0.017292 -0.191139,0 -0.370738,0.011283 -0.539391,0.033773 v 7.3867722 c 0.123679,0.01124 0.264221,0.02249 0.42163,0.03378 h 0.590448 c 1.31549,0 2.288016,-0.331421 2.917652,-0.994784 0.640877,-0.663365 0.96102,-1.580337 0.96102,-2.749659 0,-1.225541 -0.303638,-2.1529628 -0.910786,-2.7825989 -0.60715,-0.6296476 -1.568403,-0.9445637 -2.883887,-0.9445646 z" />
</svg>
